{
  "accessors": [
    {
      "bufferView": 2,
      "componentType": 5126,
      "count": 3198,
      "max": [
        8.514017105102539,
        11.76593017578125,
        3.2666308879852295
      ],
      "min": [
        0.0,
        0.0,
        0.0065379999577999115
      ],
      "type": "VEC3"
    },
    {
      "bufferView": 2,
      "byteOffset": 38376,
      "componentType": 5126,
      "count": 3198,
      "max": [
        1.0,
        1.0,
        1.0
      ],
      "min": [
        -1.0,
        -1.0,
        -1.0
      ],
      "type": "VEC3"
    },
    {
      "bufferView": 1,
      "componentType": 5126,
      "count": 3198,
      "max": [
        1.088366985321045,
        0.2357179969549179
      ],
      "min": [
        -0.08836600184440613,
        -1.235718011856079
      ],
      "type": "VEC2"
    },
    {
      "bufferView": 0,
      "componentType": 5125,
      "count": 10224,
      "type": "SCALAR"
    },
    {
      "bufferView": 2,
      "byteOffset": 76752,
      "componentType": 5126,
      "count": 1130,
      "max": [
        6.7381086349487305,
        9.962654113769531,
        2.162402868270874
      ],
      "min": [
        1.800892949104309,
        1.8348901271820068,
        0.0
      ],
      "type": "VEC3"
    },
    {
      "bufferView": 2,
      "byteOffset": 90312,
      "componentType": 5126,
      "count": 1130,
      "max": [
        0.7071068286895752,
        0.7071068286895752,
        1.0
      ],
      "min": [
        -0.7071068286895752,
        -0.7071068286895752,
        -1.0
      ],
      "type": "VEC3"
    },
    {
      "bufferView": 1,
      "byteOffset": 25584,
      "componentType": 5126,
      "count": 1130,
      "max": [
        0.9045190215110779,
        0.012458999641239643
      ],
      "min": [
        0.09017699956893921,
        -1.0124590396881104
      ],
      "type": "VEC2"
    },
    {
      "bufferView": 0,
      "byteOffset": 40896,
      "componentType": 5125,
      "count": 5376,
      "type": "SCALAR"
    }
  ],
  "asset": {
    "extras": {
      "author": "amitmaragaje1994 (https://sketchfab.com/amitmaragaje1994)",
      "license": "CC-BY-4.0 (http://creativecommons.org/licenses/by/4.0/)",
      "source": "https://sketchfab.com/3d-models/dinner-tabel-5430ef6f11f54c4a937cad8d8092e56d",
      "title": "dinner tabel"
    },
    "generator": "Sketchfab-12.67.0",
    "version": "2.0"
  },
  "bufferViews": [
    {
      "buffer": 0,
      "byteLength": 62400,
      "name": "floatBufferViews",
      "target": 34963
    },
    {
      "buffer": 0,
      "byteLength": 34624,
      "byteOffset": 62400,
      "byteStride": 8,
      "name": "floatBufferViews",
      "target": 34962
    },
    {
      "buffer": 0,
      "byteLength": 103872,
      "byteOffset": 97024,
      "byteStride": 12,
      "name": "floatBufferViews",
      "target": 34962
    }
  ],
  "buffers": [
    {
      "byteLength": 200896,
      "uri": "scene.bin"
    }
  ],
  "images": [
    {
      "uri": "wood_baseColor.png"
    }
  ],
  "materials": [
    {
      "doubleSided": true,
      "emissiveTexture": {
        "index": 0
      },
      "name": "wood",
      "pbrMetallicRoughness": {
        "baseColorTexture": {
          "index": 0
        },
        "metallicFactor": 0.0,
        "roughnessFactor": 0.28
      }
    }
  ],
  "meshes": [
    {
      "name": "Object_0",
      "primitives": [
        {
          "attributes": {
            "NORMAL": 1,
            "POSITION": 0,
            "TEXCOORD_0": 2
          },
          "indices": 3,
          "material": 0,
          "mode": 4
        }
      ]
    },
    {
      "name": "Object_1",
      "primitives": [
        {
          "attributes": {
            "NORMAL": 5,
            "POSITION": 4,
            "TEXCOORD_0": 6
          },
          "indices": 7,
          "material": 0,
          "mode": 4
        }
      ]
    }
  ],
  "nodes": [
    {
      "children": [
        1
      ],
      "matrix": [
        1.0,
        0.0,
        0.0,
        0.0,
        0.0,
        2.220446049250313e-16,
        -1.0,
        0.0,
        0.0,
        1.0,
        2.220446049250313e-16,
        0.0,
        0.0,
        0.0,
        0.0,
        1.0
      ],
      "name": "Sketchfab_model"
    },
    {
      "children": [
        2,
        3
      ],
      "name": "dine table.obj.cleaner.gles"
    },
    {
      "mesh": 0,
      "name": "Object_2"
    },
    {
      "mesh": 1,
      "name": "Object_3"
    }
  ],
  "samplers": [
    {
      "magFilter": 9729,
      "minFilter": 9987,
      "wrapS": 10497,
      "wrapT": 10497
    }
  ],
  "scene": 0,
  "scenes": [
    {
      "name": "Sketchfab_Scene",
      "nodes": [
        0
      ]
    }
  ],
  "textures": [
    {
      "sampler": 0,
      "source": 0
    }
  ]
}
