{
  "accessors": [
    {
      "bufferView": 2,
      "componentType": 5126,
      "count": 1015,
      "max": [
        0.31452080607414246,
        0.4156300127506256,
        0.324840247631073
      ],
      "min": [
        -0.3727000057697296,
        -0.1583860069513321,
        -0.3169682025909424
      ],
      "type": "VEC3"
    },
    {
      "bufferView": 2,
      "byteOffset": 12180,
      "componentType": 5126,
      "count": 1015,
      "max": [
        0.9999956488609314,
        0.9997581243515015,
        0.9995124936103821
      ],
      "min": [
        -0.9999467730522156,
        -0.9997639060020447,
        -0.9995124936103821
      ],
      "type": "VEC3"
    },
    {
      "bufferView": 1,
      "componentType": 5126,
      "count": 1015,
      "max": [
        0.9873520135879517,
        0.6953480243682861
      ],
      "min": [
        0.019706299528479576,
        0.03284670040011406
      ],
      "type": "VEC2"
    },
    {
      "bufferView": 1,
      "byteOffset": 8120,
      "componentType": 5126,
      "count": 1015,
      "max": [
        0.9873520135879517,
        0.6953480243682861
      ],
      "min": [
        0.019706299528479576,
        0.03284670040011406
      ],
      "type": "VEC2"
    },
    {
      "bufferView": 1,
      "byteOffset": 16240,
      "componentType": 5126,
      "count": 1015,
      "max": [
        0.9873520135879517,
        0.6953480243682861
      ],
      "min": [
        0.019706299528479576,
        0.03284670040011406
      ],
      "type": "VEC2"
    },
    {
      "bufferView": 1,
      "byteOffset": 24360,
      "componentType": 5126,
      "count": 1015,
      "max": [
        0.9873520135879517,
        0.6953480243682861
      ],
      "min": [
        0.019706299528479576,
        0.03284670040011406
      ],
      "type": "VEC2"
    },
    {
      "bufferView": 1,
      "byteOffset": 32480,
      "componentType": 5126,
      "count": 1015,
      "max": [
        0.9873520135879517,
        0.6953480243682861
      ],
      "min": [
        0.019706299528479576,
        0.03284670040011406
      ],
      "type": "VEC2"
    },
    {
      "bufferView": 1,
      "byteOffset": 40600,
      "componentType": 5126,
      "count": 1015,
      "max": [
        0.9873520135879517,
        0.6953480243682861
      ],
      "min": [
        0.019706299528479576,
        0.03284670040011406
      ],
      "type": "VEC2"
    },
    {
      "bufferView": 1,
      "byteOffset": 48720,
      "componentType": 5126,
      "count": 1015,
      "max": [
        0.9873520135879517,
        0.6953480243682861
      ],
      "min": [
        0.019706299528479576,
        0.03284670040011406
      ],
      "type": "VEC2"
    },
    {
      "bufferView": 1,
      "byteOffset": 56840,
      "componentType": 5126,
      "count": 1015,
      "max": [
        0.9873520135879517,
        0.6953480243682861
      ],
      "min": [
        0.019706299528479576,
        0.03284670040011406
      ],
      "type": "VEC2"
    },
    {
      "bufferView": 1,
      "byteOffset": 64960,
      "componentType": 5126,
      "count": 1015,
      "max": [
        0.9873520135879517,
        0.6953480243682861
      ],
      "min": [
        0.019706299528479576,
        0.03284670040011406
      ],
      "type": "VEC2"
    },
    {
      "bufferView": 1,
      "byteOffset": 73080,
      "componentType": 5126,
      "count": 1015,
      "max": [
        0.9873520135879517,
        0.6953480243682861
      ],
      "min": [
        0.019706299528479576,
        0.03284670040011406
      ],
      "type": "VEC2"
    },
    {
      "bufferView": 0,
      "componentType": 5125,
      "count": 5382,
      "type": "SCALAR"
    },
    {
      "bufferView": 2,
      "byteOffset": 24360,
      "componentType": 5126,
      "count": 1780,
      "max": [
        0.408218115568161,
        0.362397164106369,
        0.753584086894989
      ],
      "min": [
        -0.408218115568161,
        -0.4158521592617035,
        -0.7534067630767822
      ],
      "type": "VEC3"
    },
    {
      "bufferView": 2,
      "byteOffset": 45720,
      "componentType": 5126,
      "count": 1780,
      "max": [
        0.9997024536132813,
        1.0,
        1.0
      ],
      "min": [
        -1.0,
        -1.0,
        -1.0
      ],
      "type": "VEC3"
    },
    {
      "bufferView": 1,
      "byteOffset": 81200,
      "componentType": 5126,
      "count": 1780,
      "max": [
        0.991578996181488,
        0.995606005191803
      ],
      "min": [
        0.012493399903178215,
        0.016191799193620682
      ],
      "type": "VEC2"
    },
    {
      "bufferView": 1,
      "byteOffset": 95440,
      "componentType": 5126,
      "count": 1780,
      "max": [
        0.991578996181488,
        0.995606005191803
      ],
      "min": [
        0.012493399903178215,
        0.016191799193620682
      ],
      "type": "VEC2"
    },
    {
      "bufferView": 1,
      "byteOffset": 109680,
      "componentType": 5126,
      "count": 1780,
      "max": [
        0.991578996181488,
        0.995606005191803
      ],
      "min": [
        0.012493399903178215,
        0.016191799193620682
      ],
      "type": "VEC2"
    },
    {
      "bufferView": 1,
      "byteOffset": 123920,
      "componentType": 5126,
      "count": 1780,
      "max": [
        0.991578996181488,
        0.995606005191803
      ],
      "min": [
        0.012493399903178215,
        0.016191799193620682
      ],
      "type": "VEC2"
    },
    {
      "bufferView": 1,
      "byteOffset": 138160,
      "componentType": 5126,
      "count": 1780,
      "max": [
        0.991578996181488,
        0.995606005191803
      ],
      "min": [
        0.012493399903178215,
        0.016191799193620682
      ],
      "type": "VEC2"
    },
    {
      "bufferView": 1,
      "byteOffset": 152400,
      "componentType": 5126,
      "count": 1780,
      "max": [
        0.991578996181488,
        0.995606005191803
      ],
      "min": [
        0.012493399903178215,
        0.016191799193620682
      ],
      "type": "VEC2"
    },
    {
      "bufferView": 1,
      "byteOffset": 166640,
      "componentType": 5126,
      "count": 1780,
      "max": [
        0.991578996181488,
        0.995606005191803
      ],
      "min": [
        0.012493399903178215,
        0.016191799193620682
      ],
      "type": "VEC2"
    },
    {
      "bufferView": 1,
      "byteOffset": 180880,
      "componentType": 5126,
      "count": 1780,
      "max": [
        0.991578996181488,
        0.995606005191803
      ],
      "min": [
        0.012493399903178215,
        0.016191799193620682
      ],
      "type": "VEC2"
    },
    {
      "bufferView": 1,
      "byteOffset": 195120,
      "componentType": 5126,
      "count": 1780,
      "max": [
        0.991578996181488,
        0.995606005191803
      ],
      "min": [
        0.012493399903178215,
        0.016191799193620682
      ],
      "type": "VEC2"
    },
    {
      "bufferView": 1,
      "byteOffset": 209360,
      "componentType": 5126,
      "count": 1780,
      "max": [
        0.991578996181488,
        0.995606005191803
      ],
      "min": [
        0.012493399903178215,
        0.016191799193620682
      ],
      "type": "VEC2"
    },
    {
      "bufferView": 0,
      "byteOffset": 21528,
      "componentType": 5125,
      "count": 2646,
      "type": "SCALAR"
    },
    {
      "bufferView": 2,
      "byteOffset": 67080,
      "componentType": 5126,
      "count": 200,
      "max": [
        0.10697821527719498,
        -0.13750207424163818,
        2.367537498474121
      ],
      "min": [
        -0.3204047679901123,
        -0.24480709433555603,
        1.0239468812942505
      ],
      "type": "VEC3"
    },
    {
      "bufferView": 2,
      "byteOffset": 69480,
      "componentType": 5126,
      "count": 200,
      "max": [
        1.0,
        0.9998542666435242,
        8.893531457943027e-07
      ],
      "min": [
        -1.0,
        -1.0,
        -9.313737905358721e-07
      ],
      "type": "VEC3"
    },
    {
      "bufferView": 1,
      "byteOffset": 223600,
      "componentType": 5126,
      "count": 200,
      "max": [
        0.9750819802284241,
        0.9941179752349854
      ],
      "min": [
        0.012769999913871288,
        0.016191799193620682
      ],
      "type": "VEC2"
    },
    {
      "bufferView": 1,
      "byteOffset": 225200,
      "componentType": 5126,
      "count": 200,
      "max": [
        0.9750819802284241,
        0.9941179752349854
      ],
      "min": [
        0.012769999913871288,
        0.016191799193620682
      ],
      "type": "VEC2"
    },
    {
      "bufferView": 1,
      "byteOffset": 226800,
      "componentType": 5126,
      "count": 200,
      "max": [
        0.9750819802284241,
        0.9941179752349854
      ],
      "min": [
        0.012769999913871288,
        0.016191799193620682
      ],
      "type": "VEC2"
    },
    {
      "bufferView": 1,
      "byteOffset": 228400,
      "componentType": 5126,
      "count": 200,
      "max": [
        0.9750819802284241,
        0.9941179752349854
      ],
      "min": [
        0.012769999913871288,
        0.016191799193620682
      ],
      "type": "VEC2"
    },
    {
      "bufferView": 1,
      "byteOffset": 230000,
      "componentType": 5126,
      "count": 200,
      "max": [
        0.9750819802284241,
        0.9941179752349854
      ],
      "min": [
        0.012769999913871288,
        0.016191799193620682
      ],
      "type": "VEC2"
    },
    {
      "bufferView": 1,
      "byteOffset": 231600,
      "componentType": 5126,
      "count": 200,
      "max": [
        0.9750819802284241,
        0.9941179752349854
      ],
      "min": [
        0.012769999913871288,
        0.016191799193620682
      ],
      "type": "VEC2"
    },
    {
      "bufferView": 1,
      "byteOffset": 233200,
      "componentType": 5126,
      "count": 200,
      "max": [
        0.9750819802284241,
        0.9941179752349854
      ],
      "min": [
        0.012769999913871288,
        0.016191799193620682
      ],
      "type": "VEC2"
    },
    {
      "bufferView": 1,
      "byteOffset": 234800,
      "componentType": 5126,
      "count": 200,
      "max": [
        0.9750819802284241,
        0.9941179752349854
      ],
      "min": [
        0.012769999913871288,
        0.016191799193620682
      ],
      "type": "VEC2"
    },
    {
      "bufferView": 1,
      "byteOffset": 236400,
      "componentType": 5126,
      "count": 200,
      "max": [
        0.9750819802284241,
        0.9941179752349854
      ],
      "min": [
        0.012769999913871288,
        0.016191799193620682
      ],
      "type": "VEC2"
    },
    {
      "bufferView": 1,
      "byteOffset": 238000,
      "componentType": 5126,
      "count": 200,
      "max": [
        0.9750819802284241,
        0.9941179752349854
      ],
      "min": [
        0.012769999913871288,
        0.016191799193620682
      ],
      "type": "VEC2"
    },
    {
      "bufferView": 0,
      "byteOffset": 32112,
      "componentType": 5125,
      "count": 300,
      "type": "SCALAR"
    },
    {
      "bufferView": 2,
      "byteOffset": 71880,
      "componentType": 5126,
      "count": 1015,
      "max": [
        0.31452080607414246,
        0.4156300127506256,
        0.324840247631073
      ],
      "min": [
        -0.3727000057697296,
        -0.1583860069513321,
        -0.3169682025909424
      ],
      "type": "VEC3"
    },
    {
      "bufferView": 2,
      "byteOffset": 84060,
      "componentType": 5126,
      "count": 1015,
      "max": [
        0.9999956488609314,
        0.9997581243515015,
        0.9995124936103821
      ],
      "min": [
        -0.9999467730522156,
        -0.9997639060020447,
        -0.9995124936103821
      ],
      "type": "VEC3"
    },
    {
      "bufferView": 1,
      "byteOffset": 239600,
      "componentType": 5126,
      "count": 1015,
      "max": [
        0.9873520135879517,
        0.6953480243682861
      ],
      "min": [
        0.019706299528479576,
        0.03284670040011406
      ],
      "type": "VEC2"
    },
    {
      "bufferView": 1,
      "byteOffset": 247720,
      "componentType": 5126,
      "count": 1015,
      "max": [
        0.9873520135879517,
        0.6953480243682861
      ],
      "min": [
        0.019706299528479576,
        0.03284670040011406
      ],
      "type": "VEC2"
    },
    {
      "bufferView": 1,
      "byteOffset": 255840,
      "componentType": 5126,
      "count": 1015,
      "max": [
        0.9873520135879517,
        0.6953480243682861
      ],
      "min": [
        0.019706299528479576,
        0.03284670040011406
      ],
      "type": "VEC2"
    },
    {
      "bufferView": 1,
      "byteOffset": 263960,
      "componentType": 5126,
      "count": 1015,
      "max": [
        0.9873520135879517,
        0.6953480243682861
      ],
      "min": [
        0.019706299528479576,
        0.03284670040011406
      ],
      "type": "VEC2"
    },
    {
      "bufferView": 1,
      "byteOffset": 272080,
      "componentType": 5126,
      "count": 1015,
      "max": [
        0.9873520135879517,
        0.6953480243682861
      ],
      "min": [
        0.019706299528479576,
        0.03284670040011406
      ],
      "type": "VEC2"
    },
    {
      "bufferView": 1,
      "byteOffset": 280200,
      "componentType": 5126,
      "count": 1015,
      "max": [
        0.9873520135879517,
        0.6953480243682861
      ],
      "min": [
        0.019706299528479576,
        0.03284670040011406
      ],
      "type": "VEC2"
    },
    {
      "bufferView": 1,
      "byteOffset": 288320,
      "componentType": 5126,
      "count": 1015,
      "max": [
        0.9873520135879517,
        0.6953480243682861
      ],
      "min": [
        0.019706299528479576,
        0.03284670040011406
      ],
      "type": "VEC2"
    },
    {
      "bufferView": 1,
      "byteOffset": 296440,
      "componentType": 5126,
      "count": 1015,
      "max": [
        0.9873520135879517,
        0.6953480243682861
      ],
      "min": [
        0.019706299528479576,
        0.03284670040011406
      ],
      "type": "VEC2"
    },
    {
      "bufferView": 1,
      "byteOffset": 304560,
      "componentType": 5126,
      "count": 1015,
      "max": [
        0.9873520135879517,
        0.6953480243682861
      ],
      "min": [
        0.019706299528479576,
        0.03284670040011406
      ],
      "type": "VEC2"
    },
    {
      "bufferView": 1,
      "byteOffset": 312680,
      "componentType": 5126,
      "count": 1015,
      "max": [
        0.9873520135879517,
        0.6953480243682861
      ],
      "min": [
        0.019706299528479576,
        0.03284670040011406
      ],
      "type": "VEC2"
    },
    {
      "bufferView": 0,
      "byteOffset": 33312,
      "componentType": 5125,
      "count": 5382,
      "type": "SCALAR"
    }
  ],
  "asset": {
    "extras": {
      "author": "miqdame (https://sketchfab.com/miqdame)",
      "license": "CC-BY-4.0 (http://creativecommons.org/licenses/by/4.0/)",
      "source": "https://sketchfab.com/3d-models/traditional-chair-2-1c831100739d46ca9a5983e9bc8b0c64",
      "title": "Traditional Chair #2"
    },
    "generator": "Sketchfab-12.67.0",
    "version": "2.0"
  },
  "bufferViews": [
    {
      "buffer": 0,
      "byteLength": 54840,
      "name": "floatBufferViews",
      "target": 34963
    },
    {
      "buffer": 0,
      "byteLength": 320800,
      "byteOffset": 54840,
      "byteStride": 8,
      "name": "floatBufferViews",
      "target": 34962
    },
    {
      "buffer": 0,
      "byteLength": 96240,
      "byteOffset": 375640,
      "byteStride": 12,
      "name": "floatBufferViews",
      "target": 34962
    }
  ],
  "buffers": [
    {
      "byteLength": 471880,
      "uri": "scene.bin"
    }
  ],
  "materials": [
    {
      "doubleSided": true,
      "name": "Material_44",
      "pbrMetallicRoughness": {
        "baseColorFactor": [
          0.588,
          0.588,
          0.588,
          1.0
        ],
        "metallicFactor": 0.0,
        "roughnessFactor": 0.8929713596497552
      }
    },
    {
      "doubleSided": true,
      "name": "Material_47",
      "pbrMetallicRoughness": {
        "baseColorFactor": [
          0.588,
          0.588,
          0.588,
          1.0
        ],
        "metallicFactor": 0.0,
        "roughnessFactor": 0.8929713596497552
      }
    }
  ],
  "meshes": [
    {
      "name": "couch01_Material #44_0",
      "primitives": [
        {
          "attributes": {
            "NORMAL": 1,
            "POSITION": 0,
            "TEXCOORD_0": 2,
            "TEXCOORD_1": 3,
            "TEXCOORD_2": 4,
            "TEXCOORD_3": 5,
            "TEXCOORD_4": 6,
            "TEXCOORD_5": 7,
            "TEXCOORD_6": 8,
            "TEXCOORD_7": 9,
            "TEXCOORD_8": 10,
            "TEXCOORD_9": 11
          },
          "indices": 12,
          "material": 0,
          "mode": 4
        }
      ]
    },
    {
      "name": "couch01_Material #47_0",
      "primitives": [
        {
          "attributes": {
            "NORMAL": 14,
            "POSITION": 13,
            "TEXCOORD_0": 15,
            "TEXCOORD_1": 16,
            "TEXCOORD_2": 17,
            "TEXCOORD_3": 18,
            "TEXCOORD_4": 19,
            "TEXCOORD_5": 20,
            "TEXCOORD_6": 21,
            "TEXCOORD_7": 22,
            "TEXCOORD_8": 23,
            "TEXCOORD_9": 24
          },
          "indices": 25,
          "material": 1,
          "mode": 4
        }
      ]
    },
    {
      "name": "Object001_Material #47_0",
      "primitives": [
        {
          "attributes": {
            "NORMAL": 27,
            "POSITION": 26,
            "TEXCOORD_0": 28,
            "TEXCOORD_1": 29,
            "TEXCOORD_2": 30,
            "TEXCOORD_3": 31,
            "TEXCOORD_4": 32,
            "TEXCOORD_5": 33,
            "TEXCOORD_6": 34,
            "TEXCOORD_7": 35,
            "TEXCOORD_8": 36,
            "TEXCOORD_9": 37
          },
          "indices": 38,
          "material": 1,
          "mode": 4
        }
      ]
    },
    {
      "name": "couch002_Material #44_0",
      "primitives": [
        {
          "attributes": {
            "NORMAL": 40,
            "POSITION": 39,
            "TEXCOORD_0": 41,
            "TEXCOORD_1": 42,
            "TEXCOORD_2": 43,
            "TEXCOORD_3": 44,
            "TEXCOORD_4": 45,
            "TEXCOORD_5": 46,
            "TEXCOORD_6": 47,
            "TEXCOORD_7": 48,
            "TEXCOORD_8": 49,
            "TEXCOORD_9": 50
          },
          "indices": 51,
          "material": 0,
          "mode": 4
        }
      ]
    }
  ],
  "nodes": [
    {
      "children": [
        1
      ],
      "matrix": [
        1.0,
        0.0,
        0.0,
        0.0,
        0.0,
        2.220446049250313e-16,
        -1.0,
        0.0,
        0.0,
        1.0,
        2.220446049250313e-16,
        0.0,
        0.0,
        0.0,
        0.0,
        1.0
      ],
      "name": "Sketchfab_model"
    },
    {
      "children": [
        2
      ],
      "matrix": [
        1.0,
        0.0,
        0.0,
        0.0,
        0.0,
        0.0,
        1.0,
        0.0,
        0.0,
        -1.0,
        0.0,
        0.0,
        0.0,
        0.0,
        0.0,
        1.0
      ],
      "name": "fd6c189224274920a1a2a42b7825efd4.fbx"
    },
    {
      "children": [
        3,
        5,
        7,
        9
      ],
      "name": "RootNode"
    },
    {
      "children": [
        4
      ],
      "matrix": [
        1.7329829219469769e-06,
        -4.571860163168437e-22,
        -4.317999839782368,
        0.0,
        -2.384982735942452e-06,
        4.317999839782056,
        -9.571872408655795e-13,
        0.0,
        4.3179998397817085,
        2.3849827359426433e-06,
        1.7329829219469769e-06,
        0.0,
        1.3698621988296509,
        -0.8122594952583313,
        -0.23330508172512054,
        1.0
      ],
      "name": "couch01"
    },
    {
      "mesh": 0,
      "name": "couch01_Material #44_0"
    },
    {
      "children": [
        6
      ],
      "matrix": [
        1.7329829219469769e-06,
        -4.571860163168437e-22,
        -4.317999839782368,
        0.0,
        -2.384982735942452e-06,
        4.317999839782056,
        -9.571872408655795e-13,
        0.0,
        4.3179998397817085,
        2.3849827359426433e-06,
        1.7329829219469769e-06,
        0.0,
        4.4665607674687635e-06,
        -0.8122594952583313,
        -0.23330508172512054,
        1.0
      ],
      "name": "couch01"
    },
    {
      "mesh": 1,
      "name": "couch01_Material #47_0"
    },
    {
      "children": [
        8
      ],
      "matrix": [
        2.2477286151278616e-06,
        -4.571860163168437e-22,
        -4.31799983978213,
        0.0,
        -2.38498273594232e-06,
        4.317999839782056,
        -1.2414993384909724e-12,
        0.0,
        4.317999839781471,
        2.3849827359426433e-06,
        2.2477286151278616e-06,
        0.0,
        -7.377573490142822,
        -0.8122594952583313,
        -0.23330508172512054,
        1.0
      ],
      "name": "Object001"
    },
    {
      "mesh": 2,
      "name": "Object001_Material #47_0"
    },
    {
      "children": [
        10
      ],
      "matrix": [
        1.7329829219469769e-06,
        -4.571860163168437e-22,
        -4.317999839782368,
        0.0,
        -2.384982735942452e-06,
        4.317999839782056,
        -9.571872408655795e-13,
        0.0,
        4.3179998397817085,
        2.3849827359426433e-06,
        1.7329829219469769e-06,
        0.0,
        -1.402738332748413,
        -0.8122594952583313,
        -0.23330508172512054,
        1.0
      ],
      "name": "couch002"
    },
    {
      "mesh": 3,
      "name": "couch002_Material #44_0"
    }
  ],
  "scene": 0,
  "scenes": [
    {
      "name": "Sketchfab_Scene",
      "nodes": [
        0
      ]
    }
  ]
}
