{
  "accessors": [
    {
      "bufferView": 2,
      "componentType": 5126,
      "count": 1780,
      "max": [
        0.4082183837890625,
        0.36239761114120483,
        0.10541454702615738
      ],
      "min": [
        -0.408218115568161,
        -0.4158521592617035,
        -0.7534067630767822
      ],
      "type": "VEC3"
    },
    {
      "bufferView": 2,
      "byteOffset": 21360,
      "componentType": 5126,
      "count": 1780,
      "max": [
        0.9997024536132813,
        1.0,
        1.0
      ],
      "min": [
        -1.0,
        -1.0,
        -1.0
      ],
      "type": "VEC3"
    },
    {
      "bufferView": 1,
      "componentType": 5126,
      "count": 1780,
      "max": [
        0.991578996181488,
        0.995606005191803
      ],
      "min": [
        0.012493399903178215,
        0.016191799193620682
      ],
      "type": "VEC2"
    },
    {
      "bufferView": 1,
      "byteOffset": 14240,
      "componentType": 5126,
      "count": 1780,
      "max": [
        0.991578996181488,
        0.995606005191803
      ],
      "min": [
        0.012493399903178215,
        0.016191799193620682
      ],
      "type": "VEC2"
    },
    {
      "bufferView": 1,
      "byteOffset": 28480,
      "componentType": 5126,
      "count": 1780,
      "max": [
        0.991578996181488,
        0.995606005191803
      ],
      "min": [
        0.012493399903178215,
        0.016191799193620682
      ],
      "type": "VEC2"
    },
    {
      "bufferView": 1,
      "byteOffset": 42720,
      "componentType": 5126,
      "count": 1780,
      "max": [
        0.991578996181488,
        0.995606005191803
      ],
      "min": [
        0.012493399903178215,
        0.016191799193620682
      ],
      "type": "VEC2"
    },
    {
      "bufferView": 1,
      "byteOffset": 56960,
      "componentType": 5126,
      "count": 1780,
      "max": [
        0.991578996181488,
        0.995606005191803
      ],
      "min": [
        0.012493399903178215,
        0.016191799193620682
      ],
      "type": "VEC2"
    },
    {
      "bufferView": 1,
      "byteOffset": 71200,
      "componentType": 5126,
      "count": 1780,
      "max": [
        0.991578996181488,
        0.995606005191803
      ],
      "min": [
        0.012493399903178215,
        0.016191799193620682
      ],
      "type": "VEC2"
    },
    {
      "bufferView": 1,
      "byteOffset": 85440,
      "componentType": 5126,
      "count": 1780,
      "max": [
        0.991578996181488,
        0.995606005191803
      ],
      "min": [
        0.012493399903178215,
        0.016191799193620682
      ],
      "type": "VEC2"
    },
    {
      "bufferView": 1,
      "byteOffset": 99680,
      "componentType": 5126,
      "count": 1780,
      "max": [
        0.991578996181488,
        0.995606005191803
      ],
      "min": [
        0.012493399903178215,
        0.016191799193620682
      ],
      "type": "VEC2"
    },
    {
      "bufferView": 1,
      "byteOffset": 113920,
      "componentType": 5126,
      "count": 1780,
      "max": [
        0.991578996181488,
        0.995606005191803
      ],
      "min": [
        0.012493399903178215,
        0.016191799193620682
      ],
      "type": "VEC2"
    },
    {
      "bufferView": 1,
      "byteOffset": 128160,
      "componentType": 5126,
      "count": 1780,
      "max": [
        0.991578996181488,
        0.995606005191803
      ],
      "min": [
        0.012493399903178215,
        0.016191799193620682
      ],
      "type": "VEC2"
    },
    {
      "bufferView": 0,
      "componentType": 5125,
      "count": 2646,
      "type": "SCALAR"
    },
    {
      "bufferView": 2,
      "byteOffset": 42720,
      "componentType": 5126,
      "count": 213,
      "max": [
        0.10697821527719498,
        -0.13750207424163818,
        1.695742130279541
      ],
      "min": [
        -0.3204047679901123,
        -0.24480709433555603,
        1.0239468812942505
      ],
      "type": "VEC3"
    },
    {
      "bufferView": 2,
      "byteOffset": 45276,
      "componentType": 5126,
      "count": 213,
      "max": [
        1.0,
        0.9998542666435242,
        8.893531457943027e-07
      ],
      "min": [
        -1.0,
        -1.0,
        -9.313737905358721e-07
      ],
      "type": "VEC3"
    },
    {
      "bufferView": 1,
      "byteOffset": 142400,
      "componentType": 5126,
      "count": 213,
      "max": [
        0.9750819802284241,
        0.9941179752349854
      ],
      "min": [
        0.012769999913871288,
        0.016191799193620682
      ],
      "type": "VEC2"
    },
    {
      "bufferView": 1,
      "byteOffset": 144104,
      "componentType": 5126,
      "count": 213,
      "max": [
        0.9750819802284241,
        0.9941179752349854
      ],
      "min": [
        0.012769999913871288,
        0.016191799193620682
      ],
      "type": "VEC2"
    },
    {
      "bufferView": 1,
      "byteOffset": 145808,
      "componentType": 5126,
      "count": 213,
      "max": [
        0.9750819802284241,
        0.9941179752349854
      ],
      "min": [
        0.012769999913871288,
        0.016191799193620682
      ],
      "type": "VEC2"
    },
    {
      "bufferView": 1,
      "byteOffset": 147512,
      "componentType": 5126,
      "count": 213,
      "max": [
        0.9750819802284241,
        0.9941179752349854
      ],
      "min": [
        0.012769999913871288,
        0.016191799193620682
      ],
      "type": "VEC2"
    },
    {
      "bufferView": 1,
      "byteOffset": 149216,
      "componentType": 5126,
      "count": 213,
      "max": [
        0.9750819802284241,
        0.9941179752349854
      ],
      "min": [
        0.012769999913871288,
        0.016191799193620682
      ],
      "type": "VEC2"
    },
    {
      "bufferView": 1,
      "byteOffset": 150920,
      "componentType": 5126,
      "count": 213,
      "max": [
        0.9750819802284241,
        0.9941179752349854
      ],
      "min": [
        0.012769999913871288,
        0.016191799193620682
      ],
      "type": "VEC2"
    },
    {
      "bufferView": 1,
      "byteOffset": 152624,
      "componentType": 5126,
      "count": 213,
      "max": [
        0.9750819802284241,
        0.9941179752349854
      ],
      "min": [
        0.012769999913871288,
        0.016191799193620682
      ],
      "type": "VEC2"
    },
    {
      "bufferView": 1,
      "byteOffset": 154328,
      "componentType": 5126,
      "count": 213,
      "max": [
        0.9750819802284241,
        0.9941179752349854
      ],
      "min": [
        0.012769999913871288,
        0.016191799193620682
      ],
      "type": "VEC2"
    },
    {
      "bufferView": 1,
      "byteOffset": 156032,
      "componentType": 5126,
      "count": 213,
      "max": [
        0.9750819802284241,
        0.9941179752349854
      ],
      "min": [
        0.012769999913871288,
        0.016191799193620682
      ],
      "type": "VEC2"
    },
    {
      "bufferView": 1,
      "byteOffset": 157736,
      "componentType": 5126,
      "count": 213,
      "max": [
        0.9750819802284241,
        0.9941179752349854
      ],
      "min": [
        0.012769999913871288,
        0.016191799193620682
      ],
      "type": "VEC2"
    },
    {
      "bufferView": 0,
      "byteOffset": 10584,
      "componentType": 5125,
      "count": 369,
      "type": "SCALAR"
    },
    {
      "bufferView": 2,
      "byteOffset": 47832,
      "componentType": 5126,
      "count": 1015,
      "max": [
        0.31452080607414246,
        0.4156300127506256,
        0.324840247631073
      ],
      "min": [
        -0.3727000057697296,
        -0.1583860069513321,
        -0.3169682025909424
      ],
      "type": "VEC3"
    },
    {
      "bufferView": 2,
      "byteOffset": 60012,
      "componentType": 5126,
      "count": 1015,
      "max": [
        0.9999956488609314,
        0.9997581243515015,
        0.9995124936103821
      ],
      "min": [
        -0.9999467730522156,
        -0.9997639060020447,
        -0.9995124936103821
      ],
      "type": "VEC3"
    },
    {
      "bufferView": 1,
      "byteOffset": 159440,
      "componentType": 5126,
      "count": 1015,
      "max": [
        0.9873520135879517,
        0.6953480243682861
      ],
      "min": [
        0.019706299528479576,
        0.03284670040011406
      ],
      "type": "VEC2"
    },
    {
      "bufferView": 1,
      "byteOffset": 167560,
      "componentType": 5126,
      "count": 1015,
      "max": [
        0.9873520135879517,
        0.6953480243682861
      ],
      "min": [
        0.019706299528479576,
        0.03284670040011406
      ],
      "type": "VEC2"
    },
    {
      "bufferView": 1,
      "byteOffset": 175680,
      "componentType": 5126,
      "count": 1015,
      "max": [
        0.9873520135879517,
        0.6953480243682861
      ],
      "min": [
        0.019706299528479576,
        0.03284670040011406
      ],
      "type": "VEC2"
    },
    {
      "bufferView": 1,
      "byteOffset": 183800,
      "componentType": 5126,
      "count": 1015,
      "max": [
        0.9873520135879517,
        0.6953480243682861
      ],
      "min": [
        0.019706299528479576,
        0.03284670040011406
      ],
      "type": "VEC2"
    },
    {
      "bufferView": 1,
      "byteOffset": 191920,
      "componentType": 5126,
      "count": 1015,
      "max": [
        0.9873520135879517,
        0.6953480243682861
      ],
      "min": [
        0.019706299528479576,
        0.03284670040011406
      ],
      "type": "VEC2"
    },
    {
      "bufferView": 1,
      "byteOffset": 200040,
      "componentType": 5126,
      "count": 1015,
      "max": [
        0.9873520135879517,
        0.6953480243682861
      ],
      "min": [
        0.019706299528479576,
        0.03284670040011406
      ],
      "type": "VEC2"
    },
    {
      "bufferView": 1,
      "byteOffset": 208160,
      "componentType": 5126,
      "count": 1015,
      "max": [
        0.9873520135879517,
        0.6953480243682861
      ],
      "min": [
        0.019706299528479576,
        0.03284670040011406
      ],
      "type": "VEC2"
    },
    {
      "bufferView": 1,
      "byteOffset": 216280,
      "componentType": 5126,
      "count": 1015,
      "max": [
        0.9873520135879517,
        0.6953480243682861
      ],
      "min": [
        0.019706299528479576,
        0.03284670040011406
      ],
      "type": "VEC2"
    },
    {
      "bufferView": 1,
      "byteOffset": 224400,
      "componentType": 5126,
      "count": 1015,
      "max": [
        0.9873520135879517,
        0.6953480243682861
      ],
      "min": [
        0.019706299528479576,
        0.03284670040011406
      ],
      "type": "VEC2"
    },
    {
      "bufferView": 1,
      "byteOffset": 232520,
      "componentType": 5126,
      "count": 1015,
      "max": [
        0.9873520135879517,
        0.6953480243682861
      ],
      "min": [
        0.019706299528479576,
        0.03284670040011406
      ],
      "type": "VEC2"
    },
    {
      "bufferView": 0,
      "byteOffset": 12060,
      "componentType": 5125,
      "count": 5382,
      "type": "SCALAR"
    }
  ],
  "asset": {
    "extras": {
      "author": "miqdame (https://sketchfab.com/miqdame)",
      "license": "CC-BY-4.0 (http://creativecommons.org/licenses/by/4.0/)",
      "source": "https://sketchfab.com/3d-models/traditional-chair-1-a2fc307c03cb4786937b21cfab2f322a",
      "title": "Traditional Chair #1"
    },
    "generator": "Sketchfab-12.67.0",
    "version": "2.0"
  },
  "bufferViews": [
    {
      "buffer": 0,
      "byteLength": 33588,
      "name": "floatBufferViews",
      "target": 34963
    },
    {
      "buffer": 0,
      "byteLength": 240640,
      "byteOffset": 33588,
      "byteStride": 8,
      "name": "floatBufferViews",
      "target": 34962
    },
    {
      "buffer": 0,
      "byteLength": 72192,
      "byteOffset": 274228,
      "byteStride": 12,
      "name": "floatBufferViews",
      "target": 34962
    }
  ],
  "buffers": [
    {
      "byteLength": 346420,
      "uri": "scene.bin"
    }
  ],
  "materials": [
    {
      "doubleSided": true,
      "name": "Material_47",
      "pbrMetallicRoughness": {
        "baseColorFactor": [
          0.588,
          0.588,
          0.588,
          1.0
        ],
        "metallicFactor": 0.0,
        "roughnessFactor": 0.8929713596497552
      }
    },
    {
      "doubleSided": true,
      "name": "Material_44",
      "pbrMetallicRoughness": {
        "baseColorFactor": [
          0.588,
          0.588,
          0.588,
          1.0
        ],
        "metallicFactor": 0.0,
        "roughnessFactor": 0.8929713596497552
      }
    }
  ],
  "meshes": [
    {
      "name": "couch01_Material #47_0",
      "primitives": [
        {
          "attributes": {
            "NORMAL": 1,
            "POSITION": 0,
            "TEXCOORD_0": 2,
            "TEXCOORD_1": 3,
            "TEXCOORD_2": 4,
            "TEXCOORD_3": 5,
            "TEXCOORD_4": 6,
            "TEXCOORD_5": 7,
            "TEXCOORD_6": 8,
            "TEXCOORD_7": 9,
            "TEXCOORD_8": 10,
            "TEXCOORD_9": 11
          },
          "indices": 12,
          "material": 0,
          "mode": 4
        }
      ]
    },
    {
      "name": "Object001_Material #47_0",
      "primitives": [
        {
          "attributes": {
            "NORMAL": 14,
            "POSITION": 13,
            "TEXCOORD_0": 15,
            "TEXCOORD_1": 16,
            "TEXCOORD_2": 17,
            "TEXCOORD_3": 18,
            "TEXCOORD_4": 19,
            "TEXCOORD_5": 20,
            "TEXCOORD_6": 21,
            "TEXCOORD_7": 22,
            "TEXCOORD_8": 23,
            "TEXCOORD_9": 24
          },
          "indices": 25,
          "material": 0,
          "mode": 4
        }
      ]
    },
    {
      "name": "couch002_Material #44_0",
      "primitives": [
        {
          "attributes": {
            "NORMAL": 27,
            "POSITION": 26,
            "TEXCOORD_0": 28,
            "TEXCOORD_1": 29,
            "TEXCOORD_2": 30,
            "TEXCOORD_3": 31,
            "TEXCOORD_4": 32,
            "TEXCOORD_5": 33,
            "TEXCOORD_6": 34,
            "TEXCOORD_7": 35,
            "TEXCOORD_8": 36,
            "TEXCOORD_9": 37
          },
          "indices": 38,
          "material": 1,
          "mode": 4
        }
      ]
    }
  ],
  "nodes": [
    {
      "children": [
        1
      ],
      "matrix": [
        1.0,
        0.0,
        0.0,
        0.0,
        0.0,
        2.220446049250313e-16,
        -1.0,
        0.0,
        0.0,
        1.0,
        2.220446049250313e-16,
        0.0,
        0.0,
        0.0,
        0.0,
        1.0
      ],
      "name": "Sketchfab_model"
    },
    {
      "children": [
        2
      ],
      "matrix": [
        1.0,
        0.0,
        0.0,
        0.0,
        0.0,
        0.0,
        1.0,
        0.0,
        0.0,
        -1.0,
        0.0,
        0.0,
        0.0,
        0.0,
        0.0,
        1.0
      ],
      "name": "d6e7950762864eb0886983154eacb8f5.fbx"
    },
    {
      "children": [
        3,
        5,
        7
      ],
      "name": "RootNode"
    },
    {
      "children": [
        4
      ],
      "matrix": [
        1.7329829219469769e-06,
        -4.571860163168437e-22,
        -4.317999839782368,
        0.0,
        -2.384982735942452e-06,
        4.317999839782056,
        -9.571872408655795e-13,
        0.0,
        4.3179998397817085,
        2.3849827359426433e-06,
        1.7329829219469769e-06,
        0.0,
        1.39378821849823,
        -0.8122594952583313,
        -0.23330508172512054,
        1.0
      ],
      "name": "couch01"
    },
    {
      "mesh": 0,
      "name": "couch01_Material #47_0"
    },
    {
      "children": [
        6
      ],
      "matrix": [
        2.2477286151278616e-06,
        -4.571860163168437e-22,
        -4.31799983978213,
        0.0,
        -2.38498273594232e-06,
        4.317999839782056,
        -1.2414993384909724e-12,
        0.0,
        4.317999839781471,
        2.3849827359426433e-06,
        2.2477286151278616e-06,
        0.0,
        -5.983789443969727,
        -0.8122594952583313,
        -0.23330508172512054,
        1.0
      ],
      "name": "Object001"
    },
    {
      "mesh": 1,
      "name": "Object001_Material #47_0"
    },
    {
      "children": [
        8
      ],
      "matrix": [
        1.7329829219469769e-06,
        -4.571860163168437e-22,
        -4.317999839782368,
        0.0,
        -2.384982735942452e-06,
        4.317999839782056,
        -9.571872408655795e-13,
        0.0,
        4.3179998397817085,
        2.3849827359426433e-06,
        1.7329829219469769e-06,
        0.0,
        -0.008954524993896484,
        -0.8122594952583313,
        -0.23330508172512054,
        1.0
      ],
      "name": "couch002"
    },
    {
      "mesh": 2,
      "name": "couch002_Material #44_0"
    }
  ],
  "scene": 0,
  "scenes": [
    {
      "name": "Sketchfab_Scene",
      "nodes": [
        0
      ]
    }
  ]
}
