{
  "accessors": [
    {
      "bufferView": 2,
      "componentType": 5126,
      "count": 2091,
      "max": [
        0.31452101469039917,
        0.41585201025009155,
        0.8921899795532227
      ],
      "min": [
        -0.3731189966201782,
        -0.1583860069513321,
        -0.8921909928321838
      ],
      "type": "VEC3"
    },
    {
      "bufferView": 2,
      "byteOffset": 25092,
      "componentType": 5126,
      "count": 2091,
      "max": [
        0.9999995231628418,
        0.999760627746582,
        0.9995124936103821
      ],
      "min": [
        -0.9999764561653137,
        -0.9997672438621521,
        -0.9995124936103821
      ],
      "type": "VEC3"
    },
    {
      "bufferView": 1,
      "componentType": 5126,
      "count": 2091,
      "max": [
        0.9936599731445313,
        0.9914399981498718
      ],
      "min": [
        0.014440899714827538,
        0.011970000341534615
      ],
      "type": "VEC2"
    },
    {
      "bufferView": 1,
      "byteOffset": 16728,
      "componentType": 5126,
      "count": 2091,
      "max": [
        0.9936599731445313,
        0.9914399981498718
      ],
      "min": [
        0.014440899714827538,
        0.011970000341534615
      ],
      "type": "VEC2"
    },
    {
      "bufferView": 1,
      "byteOffset": 33456,
      "componentType": 5126,
      "count": 2091,
      "max": [
        0.9936599731445313,
        0.9914399981498718
      ],
      "min": [
        0.014440899714827538,
        0.011970000341534615
      ],
      "type": "VEC2"
    },
    {
      "bufferView": 1,
      "byteOffset": 50184,
      "componentType": 5126,
      "count": 2091,
      "max": [
        0.9936599731445313,
        0.9914399981498718
      ],
      "min": [
        0.014440899714827538,
        0.011970000341534615
      ],
      "type": "VEC2"
    },
    {
      "bufferView": 1,
      "byteOffset": 66912,
      "componentType": 5126,
      "count": 2091,
      "max": [
        0.9936599731445313,
        0.9914399981498718
      ],
      "min": [
        0.014440899714827538,
        0.011970000341534615
      ],
      "type": "VEC2"
    },
    {
      "bufferView": 1,
      "byteOffset": 83640,
      "componentType": 5126,
      "count": 2091,
      "max": [
        0.9936599731445313,
        0.9914399981498718
      ],
      "min": [
        0.014440899714827538,
        0.011970000341534615
      ],
      "type": "VEC2"
    },
    {
      "bufferView": 1,
      "byteOffset": 100368,
      "componentType": 5126,
      "count": 2091,
      "max": [
        0.9936599731445313,
        0.9914399981498718
      ],
      "min": [
        0.014440899714827538,
        0.011970000341534615
      ],
      "type": "VEC2"
    },
    {
      "bufferView": 1,
      "byteOffset": 117096,
      "componentType": 5126,
      "count": 2091,
      "max": [
        0.9936599731445313,
        0.9914399981498718
      ],
      "min": [
        0.014440899714827538,
        0.011970000341534615
      ],
      "type": "VEC2"
    },
    {
      "bufferView": 1,
      "byteOffset": 133824,
      "componentType": 5126,
      "count": 2091,
      "max": [
        0.9936599731445313,
        0.9914399981498718
      ],
      "min": [
        0.014440899714827538,
        0.011970000341534615
      ],
      "type": "VEC2"
    },
    {
      "bufferView": 1,
      "byteOffset": 150552,
      "componentType": 5126,
      "count": 2091,
      "max": [
        0.9936599731445313,
        0.9914399981498718
      ],
      "min": [
        0.014440899714827538,
        0.011970000341534615
      ],
      "type": "VEC2"
    },
    {
      "bufferView": 0,
      "componentType": 5125,
      "count": 11274,
      "type": "SCALAR"
    },
    {
      "bufferView": 2,
      "byteOffset": 50184,
      "componentType": 5126,
      "count": 1881,
      "max": [
        0.40821799635887146,
        0.3623969852924347,
        1.0
      ],
      "min": [
        -0.40821799635887146,
        -0.41585201025009155,
        -1.0
      ],
      "type": "VEC3"
    },
    {
      "bufferView": 2,
      "byteOffset": 72756,
      "componentType": 5126,
      "count": 1881,
      "max": [
        1.0,
        1.0,
        1.0
      ],
      "min": [
        -1.0,
        -1.0,
        -1.0
      ],
      "type": "VEC3"
    },
    {
      "bufferView": 1,
      "byteOffset": 167280,
      "componentType": 5126,
      "count": 1881,
      "max": [
        0.991578996181488,
        0.995606005191803
      ],
      "min": [
        0.012493399903178215,
        0.016191799193620682
      ],
      "type": "VEC2"
    },
    {
      "bufferView": 1,
      "byteOffset": 182328,
      "componentType": 5126,
      "count": 1881,
      "max": [
        0.991578996181488,
        0.995606005191803
      ],
      "min": [
        0.012493399903178215,
        0.016191799193620682
      ],
      "type": "VEC2"
    },
    {
      "bufferView": 1,
      "byteOffset": 197376,
      "componentType": 5126,
      "count": 1881,
      "max": [
        0.991578996181488,
        0.995606005191803
      ],
      "min": [
        0.012493399903178215,
        0.016191799193620682
      ],
      "type": "VEC2"
    },
    {
      "bufferView": 1,
      "byteOffset": 212424,
      "componentType": 5126,
      "count": 1881,
      "max": [
        0.991578996181488,
        0.995606005191803
      ],
      "min": [
        0.012493399903178215,
        0.016191799193620682
      ],
      "type": "VEC2"
    },
    {
      "bufferView": 1,
      "byteOffset": 227472,
      "componentType": 5126,
      "count": 1881,
      "max": [
        0.991578996181488,
        0.995606005191803
      ],
      "min": [
        0.012493399903178215,
        0.016191799193620682
      ],
      "type": "VEC2"
    },
    {
      "bufferView": 1,
      "byteOffset": 242520,
      "componentType": 5126,
      "count": 1881,
      "max": [
        0.991578996181488,
        0.995606005191803
      ],
      "min": [
        0.012493399903178215,
        0.016191799193620682
      ],
      "type": "VEC2"
    },
    {
      "bufferView": 1,
      "byteOffset": 257568,
      "componentType": 5126,
      "count": 1881,
      "max": [
        0.991578996181488,
        0.995606005191803
      ],
      "min": [
        0.012493399903178215,
        0.016191799193620682
      ],
      "type": "VEC2"
    },
    {
      "bufferView": 1,
      "byteOffset": 272616,
      "componentType": 5126,
      "count": 1881,
      "max": [
        0.991578996181488,
        0.995606005191803
      ],
      "min": [
        0.012493399903178215,
        0.016191799193620682
      ],
      "type": "VEC2"
    },
    {
      "bufferView": 1,
      "byteOffset": 287664,
      "componentType": 5126,
      "count": 1881,
      "max": [
        0.991578996181488,
        0.995606005191803
      ],
      "min": [
        0.012493399903178215,
        0.016191799193620682
      ],
      "type": "VEC2"
    },
    {
      "bufferView": 1,
      "byteOffset": 302712,
      "componentType": 5126,
      "count": 1881,
      "max": [
        0.991578996181488,
        0.995606005191803
      ],
      "min": [
        0.012493399903178215,
        0.016191799193620682
      ],
      "type": "VEC2"
    },
    {
      "bufferView": 0,
      "byteOffset": 45096,
      "componentType": 5125,
      "count": 2814,
      "type": "SCALAR"
    }
  ],
  "asset": {
    "extras": {
      "author": "miqdame (https://sketchfab.com/miqdame)",
      "license": "CC-BY-4.0 (http://creativecommons.org/licenses/by/4.0/)",
      "source": "https://sketchfab.com/3d-models/traditional-chairs-881e233eb56a47a98309ad68158494cc",
      "title": "Traditional chairs"
    },
    "generator": "Sketchfab-12.67.0",
    "version": "2.0"
  },
  "bufferViews": [
    {
      "buffer": 0,
      "byteLength": 56352,
      "name": "floatBufferViews",
      "target": 34963
    },
    {
      "buffer": 0,
      "byteLength": 317760,
      "byteOffset": 56352,
      "byteStride": 8,
      "name": "floatBufferViews",
      "target": 34962
    },
    {
      "buffer": 0,
      "byteLength": 95328,
      "byteOffset": 374112,
      "byteStride": 12,
      "name": "floatBufferViews",
      "target": 34962
    }
  ],
  "buffers": [
    {
      "byteLength": 469440,
      "uri": "scene.bin"
    }
  ],
  "materials": [
    {
      "doubleSided": true,
      "name": "Material_44",
      "pbrMetallicRoughness": {
        "baseColorFactor": [
          0.588,
          0.588,
          0.588,
          1.0
        ],
        "metallicFactor": 0.0,
        "roughnessFactor": 0.8929713596497552
      }
    },
    {
      "doubleSided": true,
      "name": "Material_47",
      "pbrMetallicRoughness": {
        "baseColorFactor": [
          0.588,
          0.588,
          0.588,
          1.0
        ],
        "metallicFactor": 0.0,
        "roughnessFactor": 0.8929713596497552
      }
    }
  ],
  "meshes": [
    {
      "name": "couch01_Material #44_0",
      "primitives": [
        {
          "attributes": {
            "NORMAL": 1,
            "POSITION": 0,
            "TEXCOORD_0": 2,
            "TEXCOORD_1": 3,
            "TEXCOORD_2": 4,
            "TEXCOORD_3": 5,
            "TEXCOORD_4": 6,
            "TEXCOORD_5": 7,
            "TEXCOORD_6": 8,
            "TEXCOORD_7": 9,
            "TEXCOORD_8": 10,
            "TEXCOORD_9": 11
          },
          "indices": 12,
          "material": 0,
          "mode": 4
        }
      ]
    },
    {
      "name": "couch01_Material #47_0",
      "primitives": [
        {
          "attributes": {
            "NORMAL": 14,
            "POSITION": 13,
            "TEXCOORD_0": 15,
            "TEXCOORD_1": 16,
            "TEXCOORD_2": 17,
            "TEXCOORD_3": 18,
            "TEXCOORD_4": 19,
            "TEXCOORD_5": 20,
            "TEXCOORD_6": 21,
            "TEXCOORD_7": 22,
            "TEXCOORD_8": 23,
            "TEXCOORD_9": 24
          },
          "indices": 25,
          "material": 1,
          "mode": 4
        }
      ]
    }
  ],
  "nodes": [
    {
      "children": [
        1
      ],
      "matrix": [
        1.0,
        0.0,
        0.0,
        0.0,
        0.0,
        2.220446049250313e-16,
        -1.0,
        0.0,
        0.0,
        1.0,
        2.220446049250313e-16,
        0.0,
        0.0,
        0.0,
        0.0,
        1.0
      ],
      "name": "Sketchfab_model"
    },
    {
      "children": [
        2
      ],
      "matrix": [
        1.0,
        0.0,
        0.0,
        0.0,
        0.0,
        0.0,
        1.0,
        0.0,
        0.0,
        -1.0,
        0.0,
        0.0,
        0.0,
        0.0,
        0.0,
        1.0
      ],
      "name": "Kursi.FBX"
    },
    {
      "children": [
        3,
        5
      ],
      "name": "RootNode"
    },
    {
      "children": [
        4
      ],
      "matrix": [
        6.82276776883695e-07,
        -8.999725317012431e-23,
        -1.700000047683579,
        0.0,
        -9.38969606019423e-07,
        1.7000000476834565,
        -3.768453756230027e-13,
        0.0,
        1.7000000476833197,
        9.389696060194986e-07,
        6.82276776883695e-07,
        0.0,
        1.7584884517418686e-06,
        -0.3197872042655945,
        -0.09185239672660828,
        1.0
      ],
      "name": "couch01"
    },
    {
      "mesh": 0,
      "name": "couch01_Material #44_0"
    },
    {
      "children": [
        6
      ],
      "matrix": [
        6.82276776883695e-07,
        -8.999725317012431e-23,
        -1.700000047683579,
        0.0,
        -9.38969606019423e-07,
        1.7000000476834565,
        -3.768453756230027e-13,
        0.0,
        1.7000000476833197,
        9.389696060194986e-07,
        6.82276776883695e-07,
        0.0,
        1.7584884517418686e-06,
        -0.3197872042655945,
        -0.09185239672660828,
        1.0
      ],
      "name": "couch01"
    },
    {
      "mesh": 1,
      "name": "couch01_Material #47_0"
    }
  ],
  "scene": 0,
  "scenes": [
    {
      "name": "Sketchfab_Scene",
      "nodes": [
        0
      ]
    }
  ]
}
