{
  "accessors": [
    {
      "bufferView": 2,
      "componentType": 5126,
      "count": 248,
      "max": [
        0.7263779640197754,
        0.7283464670181274,
        0.6909448504447937
      ],
      "min": [
        -0.011811017990112305,
        -7.04991643136287e-18,
        -0.0472441092133522
      ],
      "type": "VEC3"
    },
    {
      "bufferView": 2,
      "byteOffset": 2976,
      "componentType": 5126,
      "count": 248,
      "max": [
        1.0,
        1.0,
        1.0
      ],
      "min": [
        -1.0,
        -1.0,
        -1.0
      ],
      "type": "VEC3"
    },
    {
      "bufferView": 1,
      "componentType": 5126,
      "count": 248,
      "max": [
        13.88888931274414,
        27.535863876342773
      ],
      "min": [
        -13.88888931274414,
        -13.88888931274414
      ],
      "type": "VEC2"
    },
    {
      "bufferView": 1,
      "byteOffset": 1984,
      "componentType": 5126,
      "count": 248,
      "max": [
        13.88888931274414,
        27.535863876342773
      ],
      "min": [
        -13.88888931274414,
        -13.88888931274414
      ],
      "type": "VEC2"
    },
    {
      "bufferView": 1,
      "byteOffset": 3968,
      "componentType": 5126,
      "count": 248,
      "max": [
        13.88888931274414,
        27.535863876342773
      ],
      "min": [
        -13.88888931274414,
        -13.88888931274414
      ],
      "type": "VEC2"
    },
    {
      "bufferView": 1,
      "byteOffset": 5952,
      "componentType": 5126,
      "count": 248,
      "max": [
        13.88888931274414,
        27.535863876342773
      ],
      "min": [
        -13.88888931274414,
        -13.88888931274414
      ],
      "type": "VEC2"
    },
    {
      "bufferView": 1,
      "byteOffset": 7936,
      "componentType": 5126,
      "count": 248,
      "max": [
        13.88888931274414,
        27.535863876342773
      ],
      "min": [
        -13.88888931274414,
        -13.88888931274414
      ],
      "type": "VEC2"
    },
    {
      "bufferView": 1,
      "byteOffset": 9920,
      "componentType": 5126,
      "count": 248,
      "max": [
        13.88888931274414,
        27.535863876342773
      ],
      "min": [
        -13.88888931274414,
        -13.88888931274414
      ],
      "type": "VEC2"
    },
    {
      "bufferView": 1,
      "byteOffset": 11904,
      "componentType": 5126,
      "count": 248,
      "max": [
        13.88888931274414,
        27.535863876342773
      ],
      "min": [
        -13.88888931274414,
        -13.88888931274414
      ],
      "type": "VEC2"
    },
    {
      "bufferView": 1,
      "byteOffset": 13888,
      "componentType": 5126,
      "count": 248,
      "max": [
        13.88888931274414,
        27.535863876342773
      ],
      "min": [
        -13.88888931274414,
        -13.88888931274414
      ],
      "type": "VEC2"
    },
    {
      "bufferView": 1,
      "byteOffset": 15872,
      "componentType": 5126,
      "count": 248,
      "max": [
        13.88888931274414,
        27.535863876342773
      ],
      "min": [
        -13.88888931274414,
        -13.88888931274414
      ],
      "type": "VEC2"
    },
    {
      "bufferView": 1,
      "byteOffset": 17856,
      "componentType": 5126,
      "count": 248,
      "max": [
        13.88888931274414,
        27.535863876342773
      ],
      "min": [
        -13.88888931274414,
        -13.88888931274414
      ],
      "type": "VEC2"
    },
    {
      "bufferView": 0,
      "componentType": 5125,
      "count": 384,
      "type": "SCALAR"
    }
  ],
  "asset": {
    "extras": {
      "author": "allenbranch (https://sketchfab.com/allenbranch)",
      "license": "CC-BY-4.0 (http://creativecommons.org/licenses/by/4.0/)",
      "source": "https://sketchfab.com/3d-models/groveland-square-dining-table-7aaf2767b5f04a80b49c950f0bdb918a",
      "title": "Groveland Square Dining Table"
    },
    "generator": "Sketchfab-12.64.0",
    "version": "2.0"
  },
  "bufferViews": [
    {
      "buffer": 0,
      "byteLength": 1536,
      "name": "floatBufferViews",
      "target": 34963
    },
    {
      "buffer": 0,
      "byteLength": 19840,
      "byteOffset": 1536,
      "byteStride": 8,
      "name": "floatBufferViews",
      "target": 34962
    },
    {
      "buffer": 0,
      "byteLength": 5952,
      "byteOffset": 21376,
      "byteStride": 12,
      "name": "floatBufferViews",
      "target": 34962
    }
  ],
  "buffers": [
    {
      "byteLength": 27328,
      "uri": "scene.bin"
    }
  ],
  "materials": [
    {
      "doubleSided": true,
      "name": "M_0010_dark_wood_texture_seamless",
      "pbrMetallicRoughness": {
        "baseColorFactor": [
          0.025191469456802458,
          0.010612313124079235,
          0.0019502898248879167,
          1.0
        ],
        "metallicFactor": 0.08098323170731707,
        "roughnessFactor": 0.08974847560975607
      }
    }
  ],
  "meshes": [
    {
      "name": "Mesh1_M_0010_dark_wood_texture_seamless_0",
      "primitives": [
        {
          "attributes": {
            "NORMAL": 1,
            "POSITION": 0,
            "TEXCOORD_0": 2,
            "TEXCOORD_1": 3,
            "TEXCOORD_2": 4,
            "TEXCOORD_3": 5,
            "TEXCOORD_4": 6,
            "TEXCOORD_5": 7,
            "TEXCOORD_6": 8,
            "TEXCOORD_7": 9,
            "TEXCOORD_8": 10,
            "TEXCOORD_9": 11
          },
          "indices": 12,
          "material": 0,
          "mode": 4
        }
      ]
    }
  ],
  "nodes": [
    {
      "children": [
        1
      ],
      "matrix": [
        1.0,
        0.0,
        0.0,
        0.0,
        0.0,
        2.220446049250313e-16,
        -1.0,
        0.0,
        0.0,
        1.0,
        2.220446049250313e-16,
        0.0,
        0.0,
        0.0,
        0.0,
        1.0
      ],
      "name": "Sketchfab_model"
    },
    {
      "children": [
        2
      ],
      "matrix": [
        1.0,
        0.0,
        0.0,
        0.0,
        0.0,
        0.0,
        1.0,
        0.0,
        0.0,
        -1.0,
        0.0,
        0.0,
        0.0,
        0.0,
        0.0,
        1.0
      ],
      "name": "5c721579365e42f8b615c5c09092a9b4.fbx"
    },
    {
      "children": [
        3
      ],
      "name": "RootNode"
    },
    {
      "children": [
        4
      ],
      "name": "Model"
    },
    {
      "children": [
        5
      ],
      "name": "SimLab_2017_07_12_21_37_43_1"
    },
    {
      "children": [
        6
      ],
      "name": "Import_Symbol_location__Not_Shared___120351_"
    },
    {
      "children": [
        7
      ],
      "name": "Assembly_2"
    },
    {
      "children": [
        8
      ],
      "name": "Import_Symbol_location__Not_Shared___120351_1"
    },
    {
      "children": [
        9
      ],
      "name": "Mesh1"
    },
    {
      "mesh": 0,
      "name": "Mesh1_M_0010_dark_wood_texture_seamless_0"
    }
  ],
  "scene": 0,
  "scenes": [
    {
      "name": "Sketchfab_Scene",
      "nodes": [
        0
      ]
    }
  ]
}
