{
  "accessors": [
    {
      "bufferView": 2,
      "componentType": 5126,
      "count": 65532,
      "max": [
        4.850310325622559,
        5.892467975616455,
        12.410897254943848
      ],
      "min": [
        0.7710943222045898,
        -6.097680568695068,
        -1.0
      ],
      "type": "VEC3"
    },
    {
      "bufferView": 2,
      "byteOffset": 786384,
      "componentType": 5126,
      "count": 65532,
      "max": [
        1.0,
        1.0,
        1.0
      ],
      "min": [
        -1.0,
        -1.0,
        -1.0
      ],
      "type": "VEC3"
    },
    {
      "bufferView": 1,
      "componentType": 5126,
      "count": 65532,
      "max": [
        1.0,
        1.0
      ],
      "min": [
        0.0,
        0.0
      ],
      "type": "VEC2"
    },
    {
      "bufferView": 0,
      "componentType": 5125,
      "count": 99978,
      "type": "SCALAR"
    },
    {
      "bufferView": 2,
      "byteOffset": 1572768,
      "componentType": 5126,
      "count": 15036,
      "max": [
        4.584273338317871,
        -5.021553039550781,
        11.78525447845459
      ],
      "min": [
        3.948538064956665,
        -5.65728759765625,
        1.9949774742126465
      ],
      "type": "VEC3"
    },
    {
      "bufferView": 2,
      "byteOffset": 1753200,
      "componentType": 5126,
      "count": 15036,
      "max": [
        0.9951850771903992,
        0.995185136795044,
        0.9658046364784241
      ],
      "min": [
        -0.9951847791671753,
        -0.9951852560043335,
        -0.9657983183860779
      ],
      "type": "VEC3"
    },
    {
      "bufferView": 1,
      "byteOffset": 524256,
      "componentType": 5126,
      "count": 15036,
      "max": [
        1.0,
        1.0
      ],
      "min": [
        0.0,
        2.220446049250313e-16
      ],
      "type": "VEC2"
    },
    {
      "bufferView": 0,
      "byteOffset": 399912,
      "componentType": 5125,
      "count": 22554,
      "type": "SCALAR"
    }
  ],
  "asset": {
    "extras": {
      "author": "yisela (https://sketchfab.com/yisela)",
      "license": "CC-BY-4.0 (http://creativecommons.org/licenses/by/4.0/)",
      "source": "https://sketchfab.com/3d-models/rpg-medieval-furniture-set-01-big-shelf-cecc02e65997485a887b784ead9b19e5",
      "title": "RPG Medieval Furniture Set 01 - Big Shelf"
    },
    "generator": "Sketchfab-12.67.0",
    "version": "2.0"
  },
  "bufferViews": [
    {
      "buffer": 0,
      "byteLength": 490128,
      "name": "floatBufferViews",
      "target": 34963
    },
    {
      "buffer": 0,
      "byteLength": 644544,
      "byteOffset": 490128,
      "byteStride": 8,
      "name": "floatBufferViews",
      "target": 34962
    },
    {
      "buffer": 0,
      "byteLength": 1933632,
      "byteOffset": 1134672,
      "byteStride": 12,
      "name": "floatBufferViews",
      "target": 34962
    }
  ],
  "buffers": [
    {
      "byteLength": 3068304,
      "uri": "scene.bin"
    }
  ],
  "materials": [
    {
      "doubleSided": true,
      "name": "Scene_-_Root",
      "pbrMetallicRoughness": {
        "baseColorFactor": [
          1.0,
          0.5453331884623271,
          0.25730578540798066,
          1.0
        ],
        "metallicFactor": 0.0,
        "roughnessFactor": 0.6
      }
    }
  ],
  "meshes": [
    {
      "name": "Furniture - Big Shelf__0",
      "primitives": [
        {
          "attributes": {
            "NORMAL": 1,
            "POSITION": 0,
            "TEXCOORD_0": 2
          },
          "indices": 3,
          "material": 0,
          "mode": 4
        }
      ]
    },
    {
      "name": "Furniture - Big Shelf__0",
      "primitives": [
        {
          "attributes": {
            "NORMAL": 5,
            "POSITION": 4,
            "TEXCOORD_0": 6
          },
          "indices": 7,
          "material": 0,
          "mode": 4
        }
      ]
    }
  ],
  "nodes": [
    {
      "children": [
        1
      ],
      "matrix": [
        1.0,
        0.0,
        0.0,
        0.0,
        0.0,
        2.220446049250313e-16,
        -1.0,
        0.0,
        0.0,
        1.0,
        2.220446049250313e-16,
        0.0,
        0.0,
        0.0,
        0.0,
        1.0
      ],
      "name": "Sketchfab_model"
    },
    {
      "children": [
        2
      ],
      "matrix": [
        1.0,
        0.0,
        0.0,
        0.0,
        0.0,
        0.0,
        1.0,
        0.0,
        0.0,
        -1.0,
        0.0,
        0.0,
        0.0,
        0.0,
        0.0,
        1.0
      ],
      "name": "medieval-furniture_set01_bigShelf.fbx"
    },
    {
      "children": [
        3
      ],
      "name": "RootNode"
    },
    {
      "children": [
        4,
        5
      ],
      "matrix": [
        13.480351448059082,
        0.0,
        0.0,
        0.0,
        0.0,
        -2.1962280163584442e-06,
        -13.480351448058904,
        0.0,
        0.0,
        13.480351448058904,
        -2.1962280163584442e-06,
        0.0,
        157.04795837402344,
        39.86520767211914,
        189.9247589111328,
        1.0
      ],
      "name": "Furniture - Big Shelf"
    },
    {
      "mesh": 0,
      "name": "Furniture - Big Shelf__0"
    },
    {
      "mesh": 1,
      "name": "Furniture - Big Shelf__0"
    }
  ],
  "scene": 0,
  "scenes": [
    {
      "name": "Sketchfab_Scene",
      "nodes": [
        0
      ]
    }
  ]
}
